<svg xmlns="http://www.w3.org/2000/svg" viewBox="0 0 24 24" role="img" aria-label="Spotify">
  <path fill="#ffffff" d="M12 0C5.372 0 0 5.373 0 12c0 6.628 5.372 12 12 12 6.628 0 12-5.372 12-12C24 5.373 18.628 0 12 0zm5.498 17.173a.748.748 0 0 1-1.03.248c-2.82-1.723-6.37-2.113-10.546-1.16a.75.75 0 0 1-.333-1.463c4.573-1.045 8.487-.595 11.62 1.318a.75.75 0 0 1 .289 1.057zm1.473-3.3a.935.935 0 0 1-1.286.306c-3.23-1.986-8.15-2.56-11.958-1.4a.936.936 0 0 1-.546-1.79c4.35-1.32 9.75-.68 13.46 1.62a.936.936 0 0 1 .33 1.264zm.126-3.44C15.47 8.3 9.54 8.14 6.08 9.19a1.1 1.1 0 0 1-.64-2.11c3.96-1.2 10.55-1 14.74 1.51a1.1 1.1 0 0 1-1.08 1.87z"/>
</svg>
